<?xml version="1.0" encoding="utf-8"?>
<!-- Generator: Adobe Illustrator 28.4.1, SVG Export Plug-In . SVG Version: 6.00 Build 0)  -->
<svg version="1.1" id="Layer_1" xmlns="http://www.w3.org/2000/svg" xmlns:xlink="http://www.w3.org/1999/xlink" x="0px" y="0px"
	 viewBox="0 0 104 188" style="enable-background:new 0 0 104 188;" xml:space="preserve">
<style type="text/css">
	.st0{fill:#326F82;}
	.st1{opacity:0.5;fill:#1F5168;enable-background:new    ;}
	.st2{fill:#5AADB8;}
	.st3{fill:#468E9D;}
</style>
<path class="st0" d="M42.1,27.6c-1.2-33.8,12.2-40.5,19-39.6H132V193H71.6c-3.5-13.7-8.4-50.1,0-85.7C82,62.8,43.6,69.9,42.1,27.6z"
	/>
<path class="st1" d="M18,32.7C13-0.8,25.5-8.8,32.4-8.7l70.5-7.9l22.8,203.6l-60.1,6.7c-5-13.3-13.9-48.9-9.5-85.2
	C61.6,63.2,24.2,74.6,18,32.7z"/>
<path class="st2" d="M75.5,31.1l2.9-1.3l0.6,1.2l-2.9,1.3l1.5,3.3l-1.3,0.6l-1.5-3.3l-2.9,1.3L71.3,33l2.9-1.3l-1.4-3l1.3-0.6
	L75.5,31.1z"/>
<path class="st3" d="M84.3,74.2l2.5,1.9L86,77.3l-2.5-1.9l-2.2,2.8l-1.1-0.9l2.2-2.8l-2.5-1.9l0.8-1.1l2.5,1.9l2-2.6l1.1,0.9
	L84.3,74.2z"/>
<g>
	<path class="st2" d="M95.3,119.2l2.5,1.9l-0.8,1.1l-2.5-1.9l-2.2,2.8l-1.1-0.9l2.2-2.8l-2.5-1.9l0.8-1.1l2.5,1.9l2-2.6l1.1,0.9
		L95.3,119.2z"/>
</g>
<path class="st3" d="M85.3,161.2l2.5,1.9l-0.8,1.1l-2.5-1.9l-2.2,2.8l-1.1-0.9l2.2-2.8l-2.5-1.9l0.8-1.1l2.5,1.9l2-2.6l1.1,0.9
	L85.3,161.2z"/>
</svg>
